REM DIRINDEX 1\2,1\3,1\4,1\5
REM DIRNAME cjc046,folder01,folder02,folder03,folder04
TITLE ""
FILE "100.mp3" MP3
  TRACK 01 AUDIO
    TITLE "0:"
    INDEX 01 00:00:00
  TRACK 02 AUDIO
    TITLE "2:cjc046_2177"
    INDEX 01 00:00:15
  TRACK 03 AUDIO
    TITLE "0:"
    INDEX 01 00:01:28
  TRACK 04 AUDIO
    TITLE "3:cjc046_2178"
    INDEX 01 00:01:54
  TRACK 05 AUDIO
    TITLE "0:"
    INDEX 01 00:02:59
  TRACK 06 AUDIO
    TITLE "4:cjc046_2179"
    INDEX 01 00:03:00
  TRACK 07 AUDIO
    TITLE "0:"
    INDEX 01 00:04:11
  TRACK 08 AUDIO
    TITLE "2:cjc046_2180"
    INDEX 01 00:05:16
  TRACK 09 AUDIO
    TITLE "0:"
    INDEX 01 00:06:18
  TRACK 10 AUDIO
    TITLE "3:cjc046_2181"
    INDEX 01 00:06:47
  TRACK 11 AUDIO
    TITLE "0:"
    INDEX 01 00:07:49
  TRACK 12 AUDIO
    TITLE "4:cjc046_2182"
    INDEX 01 00:07:62
  TRACK 13 AUDIO
    TITLE "0:"
    INDEX 01 00:08:64
  TRACK 14 AUDIO
    TITLE "2:cjc046_2183"
    INDEX 01 00:09:73
  TRACK 15 AUDIO
    TITLE "0:"
    INDEX 01 00:10:72
  TRACK 16 AUDIO
    TITLE "3:cjc046_2184"
    INDEX 01 00:11:25
  TRACK 17 AUDIO
    TITLE "0:"
    INDEX 01 00:12:38
  TRACK 18 AUDIO
    TITLE "4:cjc046_2185"
    INDEX 01 00:12:52
  TRACK 19 AUDIO
    TITLE "0:"
    INDEX 01 00:13:53
  TRACK 20 AUDIO
    TITLE "2:cjc046_2186"
    INDEX 01 00:14:62
  TRACK 21 AUDIO
    TITLE "0:"
    INDEX 01 00:16:04
  TRACK 22 AUDIO
    TITLE "3:cjc046_2187"
    INDEX 01 00:16:34
  TRACK 23 AUDIO
    TITLE "0:"
    INDEX 01 00:18:11
  TRACK 24 AUDIO
    TITLE "4:cjc046_2188"
    INDEX 01 00:18:17
  TRACK 25 AUDIO
    TITLE "0:"
    INDEX 01 00:19:34
  TRACK 26 AUDIO
    TITLE "2:cjc046_2189"
    INDEX 01 00:20:45
  TRACK 27 AUDIO
    TITLE "0:"
    INDEX 01 00:21:49
  TRACK 28 AUDIO
    TITLE "3:cjc046_2190"
    INDEX 01 00:22:01
  TRACK 29 AUDIO
    TITLE "0:"
    INDEX 01 00:23:34
  TRACK 30 AUDIO
    TITLE "4:cjc046_2191"
    INDEX 01 00:23:48
  TRACK 31 AUDIO
    TITLE "0:"
    INDEX 01 00:24:51
  TRACK 32 AUDIO
    TITLE "2:cjc046_2192"
    INDEX 01 00:25:60
  TRACK 33 AUDIO
    TITLE "0:"
    INDEX 01 00:26:67
  TRACK 34 AUDIO
    TITLE "3:cjc046_2193"
    INDEX 01 00:27:22
  TRACK 35 AUDIO
    TITLE "0:"
    INDEX 01 00:28:23
  TRACK 36 AUDIO
    TITLE "4:cjc046_2194"
    INDEX 01 00:28:27
  TRACK 37 AUDIO
    TITLE "0:"
    INDEX 01 00:29:34
  TRACK 38 AUDIO
    TITLE "2:cjc046_2195"
    INDEX 01 00:30:46
  TRACK 39 AUDIO
    TITLE "0:"
    INDEX 01 00:32:15
  TRACK 40 AUDIO
    TITLE "3:cjc046_2196"
    INDEX 01 00:32:41
  TRACK 41 AUDIO
    TITLE "0:"
    INDEX 01 00:34:26
  TRACK 42 AUDIO
    TITLE "4:cjc046_2197"
    INDEX 01 00:34:32
  TRACK 43 AUDIO
    TITLE "0:"
    INDEX 01 00:36:01
  TRACK 44 AUDIO
    TITLE "2:cjc046_2198"
    INDEX 01 00:37:10
  TRACK 45 AUDIO
    TITLE "0:"
    INDEX 01 00:38:10
  TRACK 46 AUDIO
    TITLE "3:cjc046_2199"
    INDEX 01 00:38:37
  TRACK 47 AUDIO
    TITLE "0:"
    INDEX 01 00:39:58
  TRACK 48 AUDIO
    TITLE "4:cjc046_2200"
    INDEX 01 00:39:74
  TRACK 49 AUDIO
    TITLE "0:"
    INDEX 01 00:41:00
  TRACK 50 AUDIO
    TITLE "2:cjc046_2201"
    INDEX 01 00:42:10
  TRACK 51 AUDIO
    TITLE "0:"
    INDEX 01 00:43:33
  TRACK 52 AUDIO
    TITLE "3:cjc046_2202"
    INDEX 01 00:43:64
  TRACK 53 AUDIO
    TITLE "0:"
    INDEX 01 00:45:22
  TRACK 54 AUDIO
    TITLE "4:cjc046_2203"
    INDEX 01 00:45:32
  TRACK 55 AUDIO
    TITLE "0:"
    INDEX 01 00:46:58
  TRACK 56 AUDIO
    TITLE "2:cjc046_2204"
    INDEX 01 00:47:66
  TRACK 57 AUDIO
    TITLE "0:"
    INDEX 01 00:49:10
  TRACK 58 AUDIO
    TITLE "3:cjc046_2205"
    INDEX 01 00:49:35
  TRACK 59 AUDIO
    TITLE "0:"
    INDEX 01 00:50:50
  TRACK 60 AUDIO
    TITLE "4:cjc046_2206"
    INDEX 01 00:50:58
  TRACK 61 AUDIO
    TITLE "0:"
    INDEX 01 00:52:04
